# xmcd CD database file
#
# Track frame offsets:
#	180
#	40257
#	71260
#	106807
#	147917
#	162637
#	191390
#	224220
#	249705
#
# Disc length: 3639 seconds
#
# Revision: 0
# Processed by: cddbd v1.5.2PL0 Copyright (c) Steve Scherf et al.
# Submitted via: CDex 1.51
#
DISCID=870e3509
DTITLE=Daniel Guggenheim - Sojourn
DYEAR=1996
DGENRE=Jazz
TTITLE0=Seesaw-Suite
TTITLE1=No rest
TTITLE2=Presentiments
TTITLE3=Between earth and sky
TTITLE4=Fundance (Intro)
TTITLE5=Fundance
TTITLE6=Silent dream
TTITLE7=Filou
TTITLE8=Melancholy
EXTD=YEAR: 1996
EXTT0=
EXTT1=
EXTT2=
EXTT3=
EXTT4=
EXTT5=
EXTT6=
EXTT7=
EXTT8=
PLAYORDER=
